<svg width="241" height="261" viewBox="0 0 241 261" fill="none" xmlns="http://www.w3.org/2000/svg">
<g filter="url(#filter0_d_67_41)">
<path d="M181.581 159.347C169.525 195.405 130.347 214.922 94.0738 202.935C57.801 190.951 38.1693 152.005 50.2255 115.946C62.2816 79.8877 111.439 30.5256 147.712 42.5104C183.985 54.4953 193.638 123.289 181.581 159.347Z" fill="#13BD68"/>
</g>
<path d="M88.5632 92.7496C92.2115 92.7496 94.8919 93.5144 96.6044 95.044C98.3417 96.5491 99.2103 98.535 99.2103 101.002C99.2103 102.631 98.7761 104.136 97.9073 105.517C97.0636 106.874 95.7481 107.984 93.9612 108.848C92.1743 109.687 89.9531 110.106 87.2974 110.106C85.4609 110.106 83.6244 109.909 81.7878 109.514C79.9761 109.119 78.3877 108.539 77.0226 107.775L80.0008 101.335C81.093 101.952 82.2345 102.421 83.4258 102.742C84.6419 103.062 85.8209 103.223 86.9624 103.223C87.9801 103.223 88.7991 103.05 89.4194 102.705C90.0648 102.334 90.3873 101.829 90.3873 101.187C90.3873 100.57 90.1021 100.114 89.5311 99.818C88.9603 99.4972 87.9303 99.3369 86.4412 99.3369H78.884L80.187 83.6087H97.4978V90.196H87.4091L87.223 92.7496H88.5632ZM112.766 110.106C110.458 110.106 108.411 109.576 106.624 108.515C104.862 107.429 103.472 105.875 102.454 103.852C101.462 101.804 100.965 99.3739 100.965 96.5613C100.965 93.7488 101.462 91.331 102.454 89.3079C103.472 87.2602 104.862 85.7059 106.624 84.6449C108.411 83.5594 110.458 83.0166 112.766 83.0166C115.075 83.0166 117.11 83.5594 118.872 84.6449C120.659 85.7059 122.048 87.2602 123.041 89.3079C124.059 91.331 124.568 93.7488 124.568 96.5613C124.568 99.3739 124.059 101.804 123.041 103.852C122.048 105.875 120.659 107.429 118.872 108.515C117.11 109.576 115.075 110.106 112.766 110.106ZM112.766 103.112C114.752 103.112 115.745 100.928 115.745 96.5613C115.745 92.1944 114.752 90.011 112.766 90.011C110.781 90.011 109.788 92.1944 109.788 96.5613C109.788 100.928 110.781 103.112 112.766 103.112ZM133.181 97.6716C131.146 97.6716 129.483 97.0302 128.193 95.7472C126.902 94.4642 126.257 92.7003 126.257 90.4551C126.257 88.9501 126.555 87.6548 127.151 86.5693C127.746 85.4838 128.565 84.6572 129.608 84.0898C130.675 83.5224 131.866 83.2386 133.181 83.2386C134.497 83.2386 135.676 83.5224 136.718 84.0898C137.785 84.6572 138.617 85.4838 139.212 86.5693C139.808 87.6548 140.106 88.9501 140.106 90.4551C140.106 92.7003 139.46 94.4642 138.17 95.7472C136.879 97.0302 135.216 97.6716 133.181 97.6716ZM148.482 83.6087H154.774L136.979 109.514H130.687L148.482 83.6087ZM133.181 93.6748C133.653 93.6748 134.038 93.428 134.336 92.9346C134.658 92.4165 134.82 91.5901 134.82 90.4551C134.82 89.3201 134.658 88.506 134.336 88.0126C134.038 87.4945 133.653 87.2355 133.181 87.2355C132.71 87.2355 132.313 87.4945 131.99 88.0126C131.692 88.506 131.543 89.3201 131.543 90.4551C131.543 91.5901 131.692 92.4165 131.99 92.9346C132.313 93.428 132.71 93.6748 133.181 93.6748ZM152.279 109.884C150.244 109.884 148.581 109.243 147.291 107.96C146 106.677 145.355 104.913 145.355 102.668C145.355 101.163 145.653 99.8673 146.248 98.7818C146.844 97.6963 147.663 96.8697 148.705 96.3023C149.772 95.7349 150.964 95.4511 152.279 95.4511C153.595 95.4511 154.774 95.7349 155.816 96.3023C156.883 96.8697 157.715 97.6963 158.31 98.7818C158.906 99.8673 159.204 101.163 159.204 102.668C159.204 104.913 158.558 106.677 157.268 107.96C155.977 109.243 154.314 109.884 152.279 109.884ZM152.279 105.887C152.751 105.887 153.136 105.64 153.433 105.147C153.756 104.629 153.917 103.803 153.917 102.668C153.917 101.533 153.756 100.718 153.433 100.225C153.136 99.707 152.751 99.4479 152.279 99.4479C151.808 99.4479 151.41 99.707 151.088 100.225C150.79 100.718 150.641 101.533 150.641 102.668C150.641 103.803 150.79 104.629 151.088 105.147C151.41 105.64 151.808 105.887 152.279 105.887ZM93.7088 141.177C91.347 141.177 89.2258 140.688 87.3449 139.712C85.4639 138.736 83.9905 137.385 82.9246 135.661C81.8587 133.915 81.3257 131.952 81.3257 129.771C81.3257 127.589 81.8587 125.636 82.9246 123.912C83.9905 122.167 85.4639 120.806 87.3449 119.829C89.2258 118.853 91.347 118.365 93.7088 118.365C96.0704 118.365 98.1918 118.853 100.073 119.829C101.954 120.806 103.427 122.167 104.493 123.912C105.559 125.636 106.092 127.589 106.092 129.771C106.092 131.952 105.559 133.915 104.493 135.661C103.427 137.385 101.954 138.736 100.073 139.712C98.1918 140.688 96.0704 141.177 93.7088 141.177ZM93.7088 135.224C94.6284 135.224 95.4538 135.006 96.1854 134.57C96.9378 134.113 97.5335 133.479 97.9724 132.669C98.4113 131.838 98.6307 130.872 98.6307 129.771C98.6307 128.67 98.4113 127.714 97.9724 126.904C97.5335 126.072 96.9378 125.439 96.1854 125.003C95.4538 124.545 94.6284 124.317 93.7088 124.317C92.7891 124.317 91.9533 124.545 91.2009 125.003C90.4692 125.439 89.8842 126.072 89.4453 126.904C89.0064 127.714 88.7869 128.67 88.7869 129.771C88.7869 130.872 89.0064 131.838 89.4453 132.669C89.8842 133.479 90.4692 134.113 91.2009 134.57C91.9533 135.006 92.7891 135.224 93.7088 135.224ZM116.176 124.41V128.15H125.33V133.697H116.176V140.678H108.777V118.863H126.615V124.41H116.176ZM136.351 124.41V128.15H145.505V133.697H136.351V140.678H128.952V118.863H146.79V124.41H136.351ZM74.3459 149.598H67.2067V147.752H83.6329V149.598H76.4936V167.947H74.3459V149.598ZM95.6609 168.12C93.6489 168.12 91.8204 167.677 90.1759 166.793C88.5506 165.889 87.2737 164.658 86.345 163.1C85.4357 161.542 84.9809 159.792 84.9809 157.849C84.9809 155.907 85.4357 154.156 86.345 152.599C87.2737 151.041 88.5506 149.819 90.1759 148.935C91.8204 148.031 93.6489 147.579 95.6609 147.579C97.6732 147.579 99.4821 148.021 101.088 148.906C102.713 149.791 103.99 151.021 104.919 152.599C105.848 154.156 106.312 155.907 106.312 157.849C106.312 159.792 105.848 161.552 104.919 163.129C103.99 164.687 102.713 165.908 101.088 166.793C99.4821 167.677 97.6732 168.12 95.6609 168.12ZM95.6609 166.216C97.2668 166.216 98.7179 165.86 100.014 165.148C101.311 164.417 102.326 163.417 103.061 162.148C103.797 160.859 104.164 159.426 104.164 157.849C104.164 156.272 103.797 154.849 103.061 153.58C102.326 152.291 101.311 151.291 100.014 150.579C98.7179 149.848 97.2668 149.483 95.6609 149.483C94.055 149.483 92.5944 149.848 91.2786 150.579C89.9823 151.291 88.957 152.291 88.2025 153.58C87.4671 154.849 87.0996 156.272 87.0996 157.849C87.0996 159.426 87.4671 160.859 88.2025 162.148C88.957 163.417 89.9823 164.417 91.2786 165.148C92.5944 165.86 94.055 166.216 95.6609 166.216ZM111.126 147.752H119.397C121.545 147.752 123.441 148.184 125.085 149.05C126.73 149.896 128.007 151.089 128.916 152.627C129.825 154.147 130.28 155.887 130.28 157.849C130.28 159.811 129.825 161.561 128.916 163.1C128.007 164.619 126.73 165.812 125.085 166.677C123.441 167.524 121.545 167.947 119.397 167.947H111.126V147.752ZM119.281 166.1C121.061 166.1 122.618 165.754 123.953 165.062C125.288 164.35 126.323 163.379 127.059 162.148C127.794 160.898 128.161 159.465 128.161 157.849C128.161 156.234 127.794 154.81 127.059 153.58C126.323 152.329 125.288 151.358 123.953 150.666C122.618 149.954 121.061 149.598 119.281 149.598H113.273V166.1H119.281ZM147.56 162.552H136.241L133.803 167.947H131.569L140.856 147.752H142.974L152.261 167.947H149.997L147.56 162.552ZM146.776 160.821L141.9 149.973L137.025 160.821H146.776ZM161.397 160.965V167.947H159.278V160.965L151.152 147.752H153.445L160.41 159.09L167.375 147.752H169.523L161.397 160.965Z" fill="white"/>
<defs>
<filter id="filter0_d_67_41" x="32.674" y="30.6777" width="167.829" height="193.789" filterUnits="userSpaceOnUse" color-interpolation-filters="sRGB">
<feFlood flood-opacity="0" result="BackgroundImageFix"/>
<feColorMatrix in="SourceAlpha" type="matrix" values="0 0 0 0 0 0 0 0 0 0 0 0 0 0 0 0 0 0 127 0" result="hardAlpha"/>
<feOffset dy="4"/>
<feGaussianBlur stdDeviation="7"/>
<feColorMatrix type="matrix" values="0 0 0 0 0 0 0 0 0 0 0 0 0 0 0 0 0 0 0.25 0"/>
<feBlend mode="normal" in2="BackgroundImageFix" result="effect1_dropShadow_67_41"/>
<feBlend mode="normal" in="SourceGraphic" in2="effect1_dropShadow_67_41" result="shape"/>
</filter>
</defs>
</svg>
