<svg width="123" height="22" viewBox="0 0 123 22" fill="none" xmlns="http://www.w3.org/2000/svg">
<path d="M11.4093 18.2633L16.9426 21.61C17.9559 22.2233 19.1959 21.3167 18.9293 20.17L17.4626 13.8767L22.3559 9.63667C23.2493 8.86333 22.7693 7.39667 21.5959 7.30333L15.1559 6.75667L12.6359 0.81C12.1826 -0.27 10.6359 -0.27 10.1826 0.81L7.66261 6.74333L1.22261 7.29C0.0492767 7.38333 -0.430724 8.85 0.46261 9.62333L5.35594 13.8633L3.88928 20.1567C3.62261 21.3033 4.86261 22.21 5.87594 21.5967L11.4093 18.2633Z" fill="#E5C000"/>
<path d="M36.4093 18.2633L41.9426 21.61C42.9559 22.2233 44.1959 21.3167 43.9293 20.17L42.4626 13.8767L47.3559 9.63667C48.2493 8.86333 47.7693 7.39667 46.5959 7.30333L40.1559 6.75667L37.6359 0.81C37.1826 -0.27 35.6359 -0.27 35.1826 0.81L32.6626 6.74333L26.2226 7.29C25.0493 7.38333 24.5693 8.85 25.4626 9.62333L30.3559 13.8633L28.8893 20.1567C28.6226 21.3033 29.8626 22.21 30.8759 21.5967L36.4093 18.2633Z" fill="#E5C000"/>
<path d="M61.4093 18.2633L66.9426 21.61C67.9559 22.2233 69.1959 21.3167 68.9293 20.17L67.4626 13.8767L72.3559 9.63667C73.2493 8.86333 72.7693 7.39667 71.5959 7.30333L65.1559 6.75667L62.6359 0.81C62.1826 -0.27 60.6359 -0.27 60.1826 0.81L57.6626 6.74333L51.2226 7.29C50.0493 7.38333 49.5693 8.85 50.4626 9.62333L55.3559 13.8633L53.8893 20.1567C53.6226 21.3033 54.8626 22.21 55.8759 21.5967L61.4093 18.2633Z" fill="#E5C000"/>
<path d="M86.4093 18.2633L91.9426 21.61C92.9559 22.2233 94.1959 21.3167 93.9293 20.17L92.4626 13.8767L97.3559 9.63667C98.2493 8.86333 97.7693 7.39667 96.5959 7.30333L90.1559 6.75667L87.6359 0.81C87.1826 -0.27 85.6359 -0.27 85.1826 0.81L82.6626 6.74333L76.2226 7.29C75.0493 7.38333 74.5693 8.85 75.4626 9.62333L80.3559 13.8633L78.8893 20.1567C78.6226 21.3033 79.8626 22.21 80.8759 21.5967L86.4093 18.2633Z" fill="#E5C000"/>
<path d="M111.409 18.2633L116.943 21.61C117.956 22.2233 119.196 21.3167 118.929 20.17L117.463 13.8767L122.356 9.63667C123.249 8.86333 122.769 7.39667 121.596 7.30333L115.156 6.75667L112.636 0.81C112.183 -0.27 110.636 -0.27 110.183 0.81L107.663 6.74333L101.223 7.29C100.049 7.38333 99.5693 8.85 100.463 9.62333L105.356 13.8633L103.889 20.1567C103.623 21.3033 104.863 22.21 105.876 21.5967L111.409 18.2633Z" fill="url(#paint0_linear_394_32)"/>
<defs>
<linearGradient id="paint0_linear_394_32" x1="111" y1="19.5" x2="130" y2="20" gradientUnits="userSpaceOnUse">
<stop stop-color="#E5C000"/>
<stop stop-color="#9C9C9C"/>
</linearGradient>
</defs>
</svg>
